<svg width="188" height="92" viewBox="0 0 188 92" fill="none" xmlns="http://www.w3.org/2000/svg">
<g filter="url(#filter0_d_10_274)">
<path d="M4.01248 78.4878V78.2382C4.01248 78.0636 4.09982 77.9762 4.27139 77.9762H5.32263C5.49732 77.9762 5.58155 78.0636 5.58155 78.2382V78.3381C5.58155 78.6531 5.64394 78.8715 5.76871 78.9869C5.89349 79.1023 6.11809 79.1616 6.44875 79.1616H7.03208C7.35338 79.1616 7.57798 79.0992 7.70587 78.9744C7.83377 78.8497 7.89928 78.6157 7.89928 78.2757V78.1259C7.89928 77.8857 7.80257 77.6986 7.60917 77.5707C7.41577 77.4428 7.17245 77.3648 6.88546 77.3398C6.59536 77.3149 6.28654 77.2681 5.94964 77.1964C5.61586 77.1246 5.30392 77.0341 5.01381 76.9218C4.72371 76.8095 4.48351 76.5881 4.29011 76.2605C4.0967 75.933 4 75.5119 4 74.994V74.5573C4 73.9085 4.18093 73.4063 4.5459 73.0475C4.90775 72.6888 5.4131 72.511 6.0557 72.511H7.29411C7.94607 72.511 8.45453 72.6888 8.81639 73.0475C9.17824 73.4063 9.36229 73.9085 9.36229 74.5573V74.7944C9.36229 74.9691 9.27494 75.0564 9.10337 75.0564H8.05213C7.87744 75.0564 7.79322 74.9691 7.79322 74.7944V74.7195C7.79322 74.3951 7.73083 74.1736 7.60605 74.0582C7.48127 73.9428 7.25668 73.8835 6.92602 73.8835H6.43939C6.10249 73.8835 5.87165 73.949 5.75311 74.0769C5.63458 74.2048 5.57219 74.4575 5.57219 74.8318V75.0689C5.57219 75.4588 5.90909 75.6834 6.586 75.7427C7.28787 75.802 7.91175 75.9424 8.45453 76.1669C8.74464 76.2917 8.98484 76.5132 9.17824 76.8345C9.37164 77.1558 9.46835 77.5645 9.46835 78.0636V78.4878C9.46835 79.1366 9.28742 79.6389 8.92245 79.9976C8.56059 80.3563 8.05525 80.5341 7.41265 80.5341H6.06818C5.42558 80.5341 4.92023 80.3563 4.55838 79.9976C4.1934 79.6389 4.01248 79.1366 4.01248 78.4878Z" fill="white"/>
<path d="M13.94 80.5342H12.5549C11.903 80.5342 11.4008 80.3595 11.0451 80.0101C10.6895 79.6607 10.5117 79.1585 10.5117 78.5003V74.548C10.5117 73.8929 10.6895 73.3876 11.0451 73.0382C11.4008 72.6888 11.903 72.5142 12.5549 72.5142H13.94C14.5919 72.5142 15.0941 72.6888 15.4498 73.0382C15.8054 73.3876 15.9832 73.8898 15.9832 74.548V78.5003C15.9832 79.1585 15.8054 79.6607 15.4498 80.0101C15.0941 80.3595 14.5919 80.5342 13.94 80.5342ZM12.7983 79.1616H13.6779C13.9431 79.1616 14.1302 79.1055 14.2425 78.9932C14.3548 78.8809 14.411 78.6906 14.411 78.4255V74.6229C14.411 74.3577 14.3548 74.1674 14.2425 74.0552C14.1302 73.9429 13.9431 73.8867 13.6779 73.8867H12.7983C12.5331 73.8867 12.3491 73.9429 12.2399 74.0552C12.1338 74.1674 12.0777 74.3577 12.0777 74.6229V78.4255C12.0777 78.6906 12.1307 78.8809 12.2399 78.9932C12.3491 79.1055 12.5362 79.1616 12.7983 79.1616Z" fill="white"/>
<path d="M21.5516 80.5342H17.4777C17.303 80.5342 17.2188 80.4468 17.2188 80.2722V72.7762C17.2188 72.6015 17.3061 72.5142 17.4777 72.5142H18.5289C18.7036 72.5142 18.7878 72.6015 18.7878 72.7762V79.0119C18.7878 79.1024 18.8377 79.1492 18.9376 79.1492H21.5485C21.7138 79.1492 21.7949 79.2396 21.7949 79.4237V80.2722C21.7981 80.4468 21.717 80.5342 21.5516 80.5342Z" fill="white"/>
<path d="M26.6043 72.5142H27.6431C27.824 72.5142 27.9145 72.5984 27.9145 72.7637V78.5003C27.9145 79.1492 27.7335 79.6483 27.3748 80.0039C27.0161 80.3564 26.5139 80.5342 25.8713 80.5342H24.5081C23.8561 80.5342 23.3539 80.3595 22.9983 80.0101C22.6427 79.6607 22.4648 79.1585 22.4648 78.5003V72.7762C22.4648 72.6015 22.5522 72.5142 22.7238 72.5142H23.775C23.9497 72.5142 24.0339 72.6015 24.0339 72.7762V78.4255C24.0339 78.6906 24.0901 78.8809 24.2024 78.9932C24.3147 79.1055 24.4987 79.1616 24.7545 79.1616H25.6092C25.8744 79.1616 26.0615 79.1055 26.1738 78.9932C26.2861 78.8809 26.3423 78.6906 26.3423 78.4255V72.7762C26.3454 72.6015 26.4327 72.5142 26.6043 72.5142Z" fill="white"/>
<path d="M34.2564 75.4089H33.2176C33.0429 75.4089 32.9587 75.3185 32.9587 75.1344V74.6228C32.9587 74.3577 32.9026 74.1674 32.7903 74.0551C32.678 73.9428 32.4908 73.8867 32.2256 73.8867H31.3834C31.1276 73.8867 30.9436 73.9428 30.8313 74.0551C30.719 74.1674 30.6628 74.3577 30.6628 74.6228V78.4254C30.6628 78.6906 30.719 78.8808 30.8313 78.9931C30.9436 79.1054 31.1276 79.1616 31.3834 79.1616H32.2256C32.4908 79.1616 32.678 79.1054 32.7903 78.9931C32.9026 78.8808 32.9587 78.6906 32.9587 78.4254V77.9138C32.9587 77.7298 33.0461 77.6393 33.2176 77.6393H34.2564C34.4373 77.6393 34.5278 77.7298 34.5278 77.9138V78.5003C34.5278 79.1491 34.3469 79.6482 33.9881 80.0038C33.6294 80.3563 33.1272 80.5341 32.4846 80.5341H32.4721L31.9761 81.0457V81.0956C32.5875 81.0956 32.8932 81.4076 32.8932 82.0315V82.2561C32.8932 82.5555 32.7871 82.777 32.5781 82.9236C32.3691 83.0702 32.0853 83.142 31.7297 83.142H31.1588C31.0683 83.142 31.0091 83.1264 30.9779 83.0921C30.9498 83.0578 30.9342 82.9954 30.9342 82.9049V82.6647C30.9342 82.5649 30.9498 82.4994 30.9779 82.4651C31.006 82.4307 31.0652 82.4152 31.1588 82.4152H31.5799C31.8014 82.4152 31.9511 82.3964 32.026 82.359C32.1009 82.3216 32.1383 82.2498 32.1383 82.1406V82.1032C32.1383 81.9784 32.1009 81.8973 32.026 81.8599C31.9511 81.8225 31.8045 81.8037 31.5799 81.8037H31.2586C31.1089 81.8037 31.006 81.7226 30.9498 81.5604C30.8905 81.3982 30.9217 81.2516 31.0371 81.1175L31.5331 80.531H31.137C30.485 80.531 29.9828 80.3563 29.6272 80.007C29.2716 79.6576 29.0938 79.1554 29.0938 78.4972V74.5449C29.0938 73.8898 29.2716 73.3844 29.6272 73.0351C29.9828 72.6857 30.485 72.511 31.137 72.511H32.4877C33.1303 72.511 33.6325 72.6888 33.9912 73.0413C34.35 73.3938 34.5309 73.896 34.5309 74.5449V75.1313C34.5278 75.3153 34.4373 75.4089 34.2564 75.4089Z" fill="white"/>
<path d="M38.9361 80.5341H37.551C36.8991 80.5341 36.3968 80.3594 36.0412 80.01C35.6856 79.6607 35.5078 79.1584 35.5078 78.5002V74.5479C35.5078 73.8929 35.6856 73.3875 36.0412 73.0381C36.3968 72.6888 36.8991 72.5141 37.551 72.5141H38.9361C39.588 72.5141 40.0902 72.6888 40.4459 73.0381C40.8015 73.3875 40.9793 73.8897 40.9793 74.5479V78.5002C40.9793 79.1584 40.8015 79.6607 40.4459 80.01C40.0902 80.3594 39.588 80.5341 38.9361 80.5341ZM37.6477 71.7779C37.055 71.7779 36.7556 71.4628 36.7556 70.8296V70.343C36.7556 70.2525 36.8024 70.2057 36.8928 70.2057H37.3763C37.4325 70.2057 37.4699 70.2151 37.4886 70.2307C37.5042 70.2463 37.5136 70.2837 37.5136 70.343V70.4927C37.5136 70.6767 37.5261 70.7953 37.551 70.8545C37.576 70.9138 37.6197 70.9419 37.6883 70.9419C37.7538 70.9419 37.8942 70.8077 38.1094 70.5426C38.3059 70.2774 38.5555 70.1433 38.8518 70.1433C39.4383 70.1433 39.7315 70.4646 39.7315 71.1041V71.5658C39.7315 71.6749 39.691 71.728 39.6067 71.728H39.1232C39.0328 71.728 38.986 71.6749 38.986 71.5658V71.441C38.986 71.2569 38.9735 71.1384 38.9485 71.0791C38.9236 71.0199 38.8768 70.9918 38.805 70.9918C38.7333 70.9918 38.6085 71.1041 38.4276 71.3287C38.2217 71.6282 37.9597 71.7779 37.6477 71.7779ZM37.7975 79.1616H38.6771C38.9423 79.1616 39.1295 79.1054 39.2418 78.9931C39.3541 78.8808 39.4102 78.6905 39.4102 78.4254V74.6228C39.4102 74.3576 39.3541 74.1674 39.2418 74.0551C39.1295 73.9428 38.9423 73.8866 38.6771 73.8866H37.7975C37.5323 73.8866 37.3483 73.9428 37.2391 74.0551C37.133 74.1674 37.0769 74.3576 37.0769 74.6228V78.4254C37.0769 78.6905 37.1299 78.8808 37.2391 78.9931C37.3452 79.1054 37.5323 79.1616 37.7975 79.1616Z" fill="white"/>
<path d="M46.5228 80.5342H42.4738C42.2991 80.5342 42.2148 80.4468 42.2148 80.2722V72.7762C42.2148 72.6015 42.3022 72.5142 42.4738 72.5142H46.5228C46.6881 72.5142 46.7692 72.6015 46.7692 72.7762V73.6247C46.7692 73.7994 46.6881 73.8867 46.5228 73.8867H43.9368C43.8369 73.8867 43.787 73.9335 43.787 74.024V75.6461C43.787 75.7365 43.8369 75.7833 43.9368 75.7833H46.0549C46.2295 75.7833 46.3138 75.8707 46.3138 76.0453V76.8938C46.3138 77.0685 46.2264 77.1559 46.0549 77.1559H43.9368C43.8369 77.1559 43.787 77.2026 43.787 77.2931V79.0275C43.787 79.118 43.8369 79.1648 43.9368 79.1648H46.5228C46.6881 79.1648 46.7692 79.2521 46.7692 79.4268V80.2753C46.7723 80.4468 46.6881 80.5342 46.5228 80.5342Z" fill="white"/>
<path d="M47.6961 78.4878V78.2382C47.6961 78.0636 47.7834 77.9762 47.955 77.9762H49.0062C49.1809 77.9762 49.2651 78.0636 49.2651 78.2382V78.3381C49.2651 78.6531 49.3275 78.8715 49.4523 78.9869C49.5771 79.1023 49.8017 79.1616 50.1323 79.1616H50.7157C51.037 79.1616 51.2616 79.0992 51.3895 78.9744C51.5174 78.8497 51.5829 78.6157 51.5829 78.2757V78.1259C51.5829 77.8857 51.4862 77.6986 51.2928 77.5707C51.0994 77.4428 50.856 77.3648 50.5691 77.3398C50.279 77.3149 49.9701 77.2681 49.6332 77.1964C49.2995 77.1246 48.9875 77.0341 48.6974 76.9218C48.4073 76.8095 48.1671 76.5881 47.9737 76.2605C47.7803 75.933 47.6836 75.5119 47.6836 74.994V74.5573C47.6836 73.9085 47.8645 73.4063 48.2295 73.0475C48.5913 72.6888 49.0967 72.511 49.7393 72.511H50.9777C51.6297 72.511 52.1381 72.6888 52.5 73.0475C52.8618 73.4063 53.0459 73.9085 53.0459 74.5573V74.7944C53.0459 74.9691 52.9585 75.0564 52.787 75.0564H51.7357C51.561 75.0564 51.4768 74.9691 51.4768 74.7944V74.7195C51.4768 74.3951 51.4144 74.1736 51.2896 74.0582C51.1649 73.9428 50.9403 73.8835 50.6096 73.8835H50.1261C49.7892 73.8835 49.5584 73.949 49.4398 74.0769C49.3213 74.2048 49.2589 74.4575 49.2589 74.8318V75.0689C49.2589 75.4588 49.5958 75.6834 50.2727 75.7427C50.9746 75.802 51.5985 75.9424 52.1412 76.1669C52.4314 76.2917 52.6715 76.5132 52.865 76.8345C53.0584 77.1558 53.1551 77.5645 53.1551 78.0636V78.4878C53.1551 79.1366 52.9741 79.6389 52.6092 79.9976C52.2473 80.3563 51.742 80.5341 51.0994 80.5341H49.7487C49.1061 80.5341 48.6007 80.3563 48.2389 79.9976C47.877 79.6389 47.6961 79.1366 47.6961 78.4878Z" fill="white"/>
<path d="M61.1048 80.5342H57.0558C56.8811 80.5342 56.7969 80.4468 56.7969 80.2722V72.7762C56.7969 72.6015 56.8842 72.5142 57.0558 72.5142H61.1048C61.2701 72.5142 61.3512 72.6015 61.3512 72.7762V73.6247C61.3512 73.7994 61.2701 73.8867 61.1048 73.8867H58.5188C58.419 73.8867 58.3691 73.9335 58.3691 74.024V75.6461C58.3691 75.7365 58.419 75.7833 58.5188 75.7833H60.6369C60.8116 75.7833 60.8958 75.8707 60.8958 76.0453V76.8938C60.8958 77.0685 60.8085 77.1559 60.6369 77.1559H58.5188C58.419 77.1559 58.3691 77.2026 58.3691 77.2931V79.0275C58.3691 79.118 58.419 79.1648 58.5188 79.1648H61.1048C61.2701 79.1648 61.3512 79.2521 61.3512 79.4268V80.2753C61.3512 80.4468 61.2701 80.5342 61.1048 80.5342Z" fill="white"/>
<path d="M67.7656 72.5142H69.5967C69.7713 72.5142 69.8556 72.6015 69.8556 72.7762V80.269C69.8556 80.4437 69.7682 80.5311 69.5967 80.5311H68.5828C68.4082 80.5311 68.3239 80.4437 68.3239 80.269V74.3577H68.274L67.0107 78.5346C66.9607 78.7 66.8578 78.7842 66.7018 78.7842H65.6631C65.5071 78.7842 65.4042 78.7 65.3542 78.5346L64.0659 74.3453H64.016V80.269C64.016 80.3689 64.0004 80.4375 63.9661 80.4749C63.9318 80.5124 63.8632 80.5311 63.7571 80.5311H62.7433C62.5686 80.5311 62.4844 80.4437 62.4844 80.269V72.7762C62.4844 72.6015 62.5717 72.5142 62.7433 72.5142H64.5869C64.7023 72.5142 64.7803 72.5734 64.8208 72.6888L66.1341 77.0904H66.209L67.5347 72.6888C67.5534 72.5734 67.6314 72.5142 67.7656 72.5142Z" fill="white"/>
<path d="M75.0055 80.5342H73.9542C73.7795 80.5342 73.6953 80.4468 73.6953 80.2722V72.7762C73.6953 72.6015 73.7827 72.5142 73.9542 72.5142H76.9738C77.6164 72.5142 78.1155 72.692 78.4711 73.0445C78.8268 73.397 79.0046 73.8992 79.0046 74.548V75.7459C79.0046 76.3947 78.8268 76.8938 78.4711 77.2494C78.1155 77.6019 77.6164 77.7797 76.9738 77.7797H75.4141C75.3143 77.7797 75.2644 77.8265 75.2644 77.917V80.2753C75.2644 80.4468 75.1802 80.5342 75.0055 80.5342ZM75.4016 76.3916H76.7149C76.9801 76.3916 77.1641 76.3355 77.2733 76.2232C77.3793 76.1109 77.4355 75.9268 77.4355 75.6679V74.6198C77.4355 74.3546 77.3825 74.1643 77.2733 74.052C77.1672 73.9397 76.9801 73.8836 76.7149 73.8836H75.4016C75.3112 73.8836 75.2644 73.9304 75.2644 74.0208V76.2543C75.2644 76.3479 75.3112 76.3916 75.4016 76.3916Z" fill="white"/>
<path d="M80.8335 80.5343H79.645C79.4953 80.5343 79.4454 80.4469 79.4953 80.2722L81.4512 72.7794C81.5073 72.6047 81.6321 72.5173 81.8224 72.5173H83.4694C83.6753 72.5173 83.8001 72.6047 83.8406 72.7794L85.7965 80.2722C85.8464 80.4469 85.7965 80.5343 85.6468 80.5343H84.4583C84.3678 80.5343 84.3054 80.5155 84.2711 80.4781C84.2368 80.4407 84.2118 80.372 84.1962 80.2722L83.85 78.8997H81.4356L81.0893 80.2722C81.0737 80.372 81.0456 80.4407 81.0082 80.4781C80.977 80.5155 80.9177 80.5343 80.8335 80.5343ZM82.6303 74.024L81.7381 77.6269H83.5692L82.6771 74.024H82.6303Z" fill="white"/>
<path d="M89.8838 80.5342H88.5706C87.9186 80.5342 87.4164 80.3595 87.0608 80.0101C86.7051 79.6607 86.5273 79.1585 86.5273 78.5003V74.548C86.5273 73.8929 86.7051 73.3876 87.0608 73.0382C87.4164 72.6888 87.9186 72.5142 88.5706 72.5142H89.8838C90.5264 72.5142 91.0255 72.692 91.3812 73.0445C91.7368 73.397 91.9146 73.8992 91.9146 74.548V74.9223C91.9146 75.1064 91.8272 75.1969 91.6557 75.1969H90.6044C90.4297 75.1969 90.3455 75.1064 90.3455 74.9223V74.6229C90.3455 74.3577 90.2925 74.1674 90.1833 74.0552C90.0772 73.9429 89.8901 73.8867 89.6249 73.8867H88.8201C88.5643 73.8867 88.3803 73.9429 88.268 74.0552C88.1557 74.1674 88.0995 74.3577 88.0995 74.6229V78.4255C88.0995 78.6906 88.1557 78.8809 88.268 78.9932C88.3803 79.1055 88.5643 79.1616 88.8201 79.1616H89.6249C89.8901 79.1616 90.0741 79.1055 90.1833 78.9932C90.2894 78.8809 90.3455 78.6906 90.3455 78.4255V77.6394C90.3455 77.5489 90.2987 77.5021 90.2083 77.5021H89.4658C89.2912 77.5021 89.2069 77.4148 89.2069 77.2401V76.3916C89.2069 76.2169 89.2943 76.1296 89.4658 76.1296H91.6307C91.821 76.1296 91.9146 76.2263 91.9146 76.4166V78.5003C91.9146 79.1492 91.7368 79.6483 91.3812 80.0039C91.0255 80.3564 90.5264 80.5342 89.8838 80.5342Z" fill="white"/>
<path d="M93.9819 80.5343H92.7934C92.6437 80.5343 92.5938 80.4469 92.6437 80.2722L94.5996 72.7794C94.6557 72.6047 94.7805 72.5173 94.9708 72.5173H96.6179C96.8237 72.5173 96.9485 72.6047 96.9891 72.7794L98.9449 80.2722C98.9949 80.4469 98.9449 80.5343 98.7952 80.5343H97.6067C97.5162 80.5343 97.4539 80.5155 97.4196 80.4781C97.3852 80.4407 97.3603 80.372 97.3447 80.2722L96.9984 78.8997H94.584L94.2377 80.2722C94.2221 80.372 94.1941 80.4407 94.1566 80.4781C94.1223 80.5155 94.063 80.5343 93.9819 80.5343ZM95.7756 74.024L94.8835 77.6269H96.7146L95.8224 74.024H95.7756Z" fill="white"/>
<path d="M105.086 72.5142H106.917C107.092 72.5142 107.176 72.6015 107.176 72.7762V80.269C107.176 80.4437 107.089 80.5311 106.917 80.5311H105.903C105.728 80.5311 105.644 80.4437 105.644 80.269V74.3577H105.594L104.331 78.5346C104.281 78.7 104.178 78.7842 104.022 78.7842H102.983C102.827 78.7842 102.724 78.7 102.675 78.5346L101.386 74.3453H101.336V80.269C101.336 80.3689 101.321 80.4375 101.286 80.4749C101.252 80.5124 101.183 80.5311 101.077 80.5311H100.064C99.8889 80.5311 99.8047 80.4437 99.8047 80.269V72.7762C99.8047 72.6015 99.892 72.5142 100.064 72.5142H101.907C102.023 72.5142 102.101 72.5734 102.141 72.6888L103.454 77.0904H103.529L104.855 72.6888C104.877 72.5734 104.955 72.5142 105.086 72.5142Z" fill="white"/>
<path d="M112.847 80.5342H108.798C108.623 80.5342 108.539 80.4468 108.539 80.2722V72.7762C108.539 72.6015 108.626 72.5142 108.798 72.5142H112.847C113.012 72.5142 113.093 72.6015 113.093 72.7762V73.6247C113.093 73.7994 113.012 73.8867 112.847 73.8867H110.261C110.161 73.8867 110.111 73.9335 110.111 74.024V75.6461C110.111 75.7365 110.161 75.7833 110.261 75.7833H112.379C112.554 75.7833 112.638 75.8707 112.638 76.0453V76.8938C112.638 77.0685 112.551 77.1559 112.379 77.1559H110.261C110.161 77.1559 110.111 77.2026 110.111 77.2931V79.0275C110.111 79.118 110.161 79.1648 110.261 79.1648H112.847C113.012 79.1648 113.093 79.2521 113.093 79.4268V80.2753C113.097 80.4468 113.012 80.5342 112.847 80.5342Z" fill="white"/>
<path d="M115.508 80.5342H114.482C114.307 80.5342 114.223 80.4468 114.223 80.2722V72.7762C114.223 72.6015 114.31 72.5142 114.482 72.5142H115.411C115.586 72.5142 115.701 72.5734 115.757 72.6888L118.259 77.4148H118.309V72.7762C118.309 72.6015 118.396 72.5142 118.568 72.5142H119.594C119.769 72.5142 119.853 72.6015 119.853 72.7762V80.269C119.853 80.4437 119.766 80.5311 119.594 80.5311H118.69C118.509 80.5311 118.375 80.4468 118.294 80.2815L115.817 75.6429H115.767V80.269C115.77 80.4468 115.683 80.5342 115.508 80.5342Z" fill="white"/>
<path d="M123.679 80.5342H122.64C122.459 80.5342 122.369 80.4468 122.369 80.2722V74.024C122.369 73.9335 122.322 73.8867 122.231 73.8867H120.821C120.647 73.8867 120.562 73.7994 120.562 73.6247V72.7762C120.562 72.6015 120.65 72.5142 120.821 72.5142H125.501C125.675 72.5142 125.759 72.6015 125.759 72.7762V73.6247C125.759 73.7994 125.672 73.8867 125.501 73.8867H124.091C123.991 73.8867 123.941 73.9335 123.941 74.024V80.2722C123.938 80.4468 123.85 80.5342 123.679 80.5342Z" fill="white"/>
<path d="M129.756 80.5342H128.371C127.719 80.5342 127.217 80.3595 126.862 80.0101C126.506 79.6607 126.328 79.1585 126.328 78.5003V74.548C126.328 73.8929 126.506 73.3876 126.862 73.0382C127.217 72.6888 127.719 72.5142 128.371 72.5142H129.756C130.408 72.5142 130.911 72.6888 131.266 73.0382C131.622 73.3876 131.8 73.8898 131.8 74.548V78.5003C131.8 79.1585 131.622 79.6607 131.266 80.0101C130.911 80.3595 130.408 80.5342 129.756 80.5342ZM128.618 79.1616H129.497C129.763 79.1616 129.95 79.1055 130.062 78.9932C130.174 78.8809 130.231 78.6906 130.231 78.4255V74.6229C130.231 74.3577 130.174 74.1674 130.062 74.0552C129.95 73.9429 129.763 73.8867 129.497 73.8867H128.618C128.353 73.8867 128.169 73.9429 128.059 74.0552C127.953 74.1674 127.897 74.3577 127.897 74.6229V78.4255C127.897 78.6906 127.95 78.8809 128.059 78.9932C128.169 79.1055 128.353 79.1616 128.618 79.1616Z" fill="white"/>
<path d="M132.837 78.4878V78.2382C132.837 78.0636 132.924 77.9762 133.096 77.9762H134.147C134.322 77.9762 134.406 78.0636 134.406 78.2382V78.3381C134.406 78.6531 134.468 78.8715 134.593 78.9869C134.718 79.1023 134.942 79.1616 135.273 79.1616H135.856C136.178 79.1616 136.402 79.0992 136.53 78.9744C136.658 78.8497 136.723 78.6157 136.723 78.2757V78.1259C136.723 77.8857 136.627 77.6986 136.433 77.5707C136.24 77.4428 135.997 77.3648 135.71 77.3398C135.42 77.3149 135.111 77.2681 134.774 77.1964C134.44 77.1246 134.128 77.0341 133.838 76.9218C133.548 76.8095 133.308 76.5881 133.114 76.2605C132.921 75.933 132.824 75.5119 132.824 74.994V74.5573C132.824 73.9085 133.005 73.4063 133.37 73.0475C133.732 72.6888 134.237 72.511 134.88 72.511H136.118C136.77 72.511 137.279 72.6888 137.641 73.0475C138.002 73.4063 138.187 73.9085 138.187 74.5573V74.7944C138.187 74.9691 138.099 75.0564 137.928 75.0564H136.876C136.702 75.0564 136.617 74.9691 136.617 74.7944V74.7195C136.617 74.3951 136.555 74.1736 136.43 74.0582C136.305 73.9428 136.081 73.8835 135.75 73.8835H135.267C134.93 73.8835 134.699 73.949 134.58 74.0769C134.462 74.2048 134.4 74.4575 134.4 74.8318V75.0689C134.4 75.4588 134.736 75.6834 135.413 75.7427C136.115 75.802 136.739 75.9424 137.282 76.1669C137.572 76.2917 137.812 76.5132 138.006 76.8345C138.199 77.1558 138.296 77.5645 138.296 78.0636V78.4878C138.296 79.1366 138.115 79.6389 137.75 79.9976C137.388 80.3563 136.883 80.5341 136.24 80.5341H134.889C134.247 80.5341 133.741 80.3563 133.379 79.9976C133.018 79.6389 132.837 79.1366 132.837 78.4878Z" fill="white"/>
<path d="M38.1332 30.7856C43.274 29.1479 45.8475 25.5387 45.8475 19.9674V15.934C45.8475 10.8182 44.4469 6.88456 41.6487 4.13011C38.8475 1.37566 34.8765 0 29.7357 0H6.29946C4.93315 0 4.25 0.689392 4.25 2.06506V61.1781C4.25 62.5538 4.93315 63.2432 6.29946 63.2432H30.7121C35.7905 63.2432 39.7272 61.8675 42.5284 59.113C45.3265 56.3586 46.7272 52.425 46.7272 47.3091V41.4072C46.7272 38.1942 45.9473 35.7205 44.3845 33.9799C42.8185 32.2455 40.7348 31.1786 38.1332 30.7856ZM16.6497 11.5075C16.6497 10.787 17.0053 10.4251 17.7228 10.4251H27.7798C29.8636 10.4251 31.3765 10.8681 32.3217 11.754C33.2637 12.6399 33.7379 14.0998 33.7379 16.1305V19.9674C33.7379 22.0013 33.2513 23.4581 32.2718 24.344C31.2954 25.2299 29.7637 25.6728 27.6831 25.6728H17.7228C17.0053 25.6728 16.6497 25.3141 16.6497 24.5904V11.5075V11.5075ZM34.7143 47.1157C34.7143 49.1496 34.2401 50.6064 33.2981 51.4923C32.3529 52.3782 30.8088 52.8212 28.6595 52.8212H17.7228C17.0053 52.8212 16.6497 52.4624 16.6497 51.7387V36.8872C16.6497 36.1666 17.0053 35.8047 17.7228 35.8047H28.4629C30.6746 35.8047 32.2718 36.2321 33.2481 37.0837C34.2245 37.9353 34.7143 39.3796 34.7143 41.4103V47.1157V47.1157Z" fill="white"/>
<path d="M138.283 20.8533V15.934C138.283 10.8182 136.882 6.88456 134.084 4.13011C131.283 1.37566 127.312 0 122.171 0H113.48C108.336 0 104.365 1.37566 101.567 4.13011C98.7689 6.88456 97.3683 10.8182 97.3683 15.934V18.5886C97.3683 19.9643 98.0514 20.6537 99.4177 20.6537H107.718C109.085 20.6537 109.768 19.9643 109.768 18.5886V16.1305C109.768 14.0998 110.189 12.6399 111.038 11.754C111.883 10.8681 113.349 10.4251 115.433 10.4251H120.121C122.271 10.4251 123.815 10.8681 124.76 11.754C125.702 12.6399 126.176 14.0998 126.176 16.1305V20.7535C126.176 22.7874 125.702 24.2441 124.76 25.1301C123.815 26.016 122.271 26.4589 120.121 26.4589H115.143C113.776 26.4589 113.093 27.1826 113.093 28.6238V34.5258C113.093 35.9014 113.776 36.5908 115.143 36.5908H120.121C122.271 36.5908 123.815 37.0338 124.76 37.9197C125.702 38.8056 126.176 40.2655 126.176 42.2962V47.1157C126.176 49.1496 125.702 50.6064 124.76 51.4923C123.958 52.2441 122.72 52.6746 121.051 52.79L113.804 52.7151C112.566 52.5404 111.643 52.1505 111.038 51.5422C110.192 50.6906 109.768 49.2151 109.768 47.1157V44.5578C109.768 43.1166 109.085 42.3929 107.718 42.3929H99.4177C98.0514 42.3929 97.3683 43.1166 97.3683 44.5578V47.3123C97.3683 49.2245 97.5648 50.9713 97.9547 52.556L65.912 52.2316V50.6563C65.912 49.8047 66.3019 49.0186 67.0849 48.2949L85.4427 32.5574C89.3482 29.2134 91.301 24.9834 91.301 19.8676V15.934C91.301 10.8182 89.9004 6.88456 87.1022 4.13011C84.301 1.37566 80.33 0 75.1892 0H67.7681C62.6241 0 58.6531 1.37566 55.855 4.13011C53.0569 6.88456 51.6562 10.8182 51.6562 15.934V19.278C51.6562 20.7223 52.3394 21.4429 53.7057 21.4429H62.0065C63.3728 21.4429 64.056 20.7223 64.056 19.278V16.1305C64.056 14.0998 64.4771 12.6399 65.3256 11.754C66.1709 10.8681 67.6339 10.4251 69.7208 10.4251H73.1397C75.289 10.4251 76.8331 10.8681 77.7783 11.754C78.7203 12.6399 79.1945 14.0998 79.1945 16.1305V19.0815C79.1945 21.9015 77.7284 24.5249 74.7992 26.9518L56.8314 42.2962C53.6402 44.9197 52.0462 48.0984 52.0462 51.8385V61.1812C52.0462 62.5569 52.7293 63.2463 54.0956 63.2463L121.466 63.2837C121.647 63.2837 121.887 63.2712 122.165 63.2463H122.171C127.312 63.2463 131.283 61.8706 134.084 59.1162C136.882 56.3617 138.283 52.4281 138.283 47.3123V42.2962C138.283 36.2633 135.709 32.6915 130.568 31.5748C135.709 29.934 138.283 26.3591 138.283 20.8533Z" fill="white"/>
<path d="M182.875 16.579L175.543 23.9109L176.489 24.8572L183.821 17.5253L182.875 16.579Z" fill="white"/>
<path d="M149.72 16.5806L148.773 17.5269L156.105 24.8587L157.052 23.9125L149.72 16.5806Z" fill="white"/>
<path d="M176.485 3.53078L175.539 4.47705L182.871 11.8089L183.817 10.8627L176.485 3.53078Z" fill="white"/>
<path d="M156.105 3.53188L148.773 10.8638L149.72 11.81L157.052 4.47815L156.105 3.53188Z" fill="white"/>
<path d="M181.018 25.018H151.658C150.014 25.018 148.676 23.6797 148.676 22.0358V6.36693C148.676 4.723 150.014 3.38477 151.658 3.38477H181.018C182.662 3.38477 184 4.723 184 6.36693V22.0358C183.997 23.6797 182.662 25.018 181.018 25.018ZM151.658 4.73236C150.756 4.73236 150.023 5.46542 150.023 6.36693V22.0358C150.023 22.9373 150.756 23.6704 151.658 23.6704H181.018C181.919 23.6704 182.653 22.9373 182.653 22.0358V6.36693C182.653 5.46542 181.919 4.73236 181.018 4.73236H151.658Z" fill="white"/>
<path d="M166.409 20.8064C162.906 20.8064 160.055 17.8399 160.055 14.1933C160.055 10.5466 162.906 7.58008 166.409 7.58008C169.912 7.58008 172.763 10.5466 172.763 14.1933C172.763 17.8399 169.912 20.8064 166.409 20.8064ZM166.409 8.91831C163.645 8.91831 161.393 11.286 161.393 14.1933C161.393 17.1037 163.642 19.4682 166.409 19.4682C169.173 19.4682 171.425 17.1006 171.425 14.1933C171.422 11.286 169.173 8.91831 166.409 8.91831Z" fill="white"/>
<path d="M180.441 26.5121H148.654C147.753 26.5121 147.019 25.779 147.019 24.8775V19.5059V7.02194C147.019 6.65073 146.717 6.34814 146.346 6.34814C145.974 6.34814 145.672 6.65073 145.672 7.02194V19.9176V24.8775C145.672 26.5214 147.01 27.8597 148.654 27.8597H180.441C180.812 27.8597 181.115 27.5571 181.115 27.1859C181.115 26.8116 180.812 26.5121 180.441 26.5121Z" fill="white"/>
</g>
<defs>
<filter id="filter0_d_10_274" x="0" y="0" width="188" height="91.1421" filterUnits="userSpaceOnUse" color-interpolation-filters="sRGB">
<feFlood flood-opacity="0" result="BackgroundImageFix"/>
<feColorMatrix in="SourceAlpha" type="matrix" values="0 0 0 0 0 0 0 0 0 0 0 0 0 0 0 0 0 0 127 0" result="hardAlpha"/>
<feOffset dy="4"/>
<feGaussianBlur stdDeviation="2"/>
<feComposite in2="hardAlpha" operator="out"/>
<feColorMatrix type="matrix" values="0 0 0 0 0 0 0 0 0 0 0 0 0 0 0 0 0 0 0.25 0"/>
<feBlend mode="normal" in2="BackgroundImageFix" result="effect1_dropShadow_10_274"/>
<feBlend mode="normal" in="SourceGraphic" in2="effect1_dropShadow_10_274" result="shape"/>
</filter>
</defs>
</svg>
